<svg xmlns="http://www.w3.org/2000/svg" version="1.1" xmlns:xlink="http://www.w3.org/1999/xlink" width="512" height="512" x="0" y="0" viewBox="0 0 512 512" style="enable-background:new 0 0 512 512" xml:space="preserve" class=""><g><path d="M465.162 403.122h-95.605c-22.824 0-41.327-18.503-41.327-41.327v-47.823c0-22.824 18.503-41.327 41.327-41.327h95.605c22.824 0 41.327 18.503 41.327 41.327v47.823c0 22.824-18.503 41.327-41.327 41.327z" style="" fill="#ffffff" data-original="#ffffff"></path><path d="M465.162 408.632h-95.605c-25.827 0-46.838-21.012-46.838-46.838V313.97c0-25.826 21.011-46.838 46.838-46.838h95.605c25.827 0 46.838 21.012 46.838 46.838v47.824c0 25.826-21.011 46.838-46.838 46.838zm-95.605-130.477c-19.75 0-35.817 16.066-35.817 35.816v47.824c0 19.75 16.067 35.816 35.817 35.816h95.605c19.749 0 35.817-16.067 35.817-35.816v-47.824c0-19.75-16.067-35.816-35.817-35.816h-95.605z" style="" fill="#e2e2e2" data-original="#e2e2e2"></path><path d="M453.837 337.883c0 8.942-2.93 17.216-7.864 23.895l-32.32-23.895 23.378-32.686c10.17 7.282 16.806 19.219 16.806 32.686z" style="" fill="#fc80a5" data-original="#fc80a5"></path><path d="M445.971 361.778c-7.327 9.89-19.069 16.289-32.32 16.289-3.297 0-6.529-.409-9.589-1.164l9.589-39.021 32.32 23.896z" style="" fill="#ffff9c" data-original="#ffff9c"></path><path d="M437.028 305.194 413.65 337.88l-9.589 39.021c-17.56-4.287-30.597-20.124-30.597-39.021 0-22.193 17.992-40.185 40.186-40.185a40.012 40.012 0 0 1 23.378 7.499z" style="" fill="#88d670" data-original="#88d670"></path><path d="M404.063 382.43a5.51 5.51 0 0 1-1.315-.159c-20.487-5.017-34.795-23.27-34.795-44.388 0-25.198 20.5-45.698 45.698-45.698 9.609 0 18.804 2.949 26.591 8.529a5.511 5.511 0 0 1-6.419 8.959c-5.904-4.231-12.879-6.467-20.171-6.467-19.121 0-34.677 15.556-34.677 34.676 0 16.025 10.854 29.877 26.395 33.683a5.51 5.51 0 0 1-1.307 10.865z" style="" fill="#6db750" data-original="#6db750"></path><path d="M413.651 383.58c-3.685 0-7.353-.44-10.903-1.31a5.508 5.508 0 0 1-4.018-6.757l9.569-38.946 10.703 2.63-8.17 33.249c.935.074 1.876.112 2.818.112 11.105 0 21.27-5.126 27.888-14.065l8.857 6.56c-8.589 11.602-22.326 18.527-36.744 18.527z" style="" fill="#ffcb6b" data-original="#ffcb6b"></path><path d="M445.96 367.287a5.507 5.507 0 0 1-3.277-1.078l-32.309-23.895a5.511 5.511 0 0 1-1.206-7.636l23.37-32.683a5.497 5.497 0 0 1 1.942-1.686 5.51 5.51 0 0 1 5.762.406c11.964 8.573 19.107 22.468 19.107 37.168 0 9.867-3.095 19.262-8.952 27.171a5.513 5.513 0 0 1-4.437 2.233zm.008-5.513h.01-.01zm-24.68-25.098 23.175 17.141c2.54-4.89 3.864-10.311 3.864-15.934 0-9.298-3.768-18.174-10.282-24.64l-16.757 23.433z" style="" fill="#fd518d" data-original="#fd518d"></path><path d="M142.443 230.638H46.838c-22.824 0-41.327-18.503-41.327-41.327v-47.823c0-22.824 18.503-41.327 41.327-41.327h95.605c22.824 0 41.327 18.503 41.327 41.327v47.823c.001 22.824-18.502 41.327-41.327 41.327z" style="" fill="#ffffff" data-original="#ffffff"></path><path d="M142.443 236.149H46.838C21.011 236.149 0 215.137 0 189.31v-47.823c0-25.827 21.011-46.839 46.838-46.839h95.605c25.827 0 46.838 21.012 46.838 46.839v47.823c0 25.827-21.011 46.839-46.838 46.839zM46.838 105.67c-19.75 0-35.817 16.067-35.817 35.817v47.823c0 19.749 16.067 35.817 35.817 35.817h95.605c19.75 0 35.817-16.068 35.817-35.817v-47.823c0-19.75-16.067-35.817-35.817-35.817H46.838z" style="" fill="#e2e2e2" data-original="#e2e2e2"></path><path d="M68.098 189.932a5.512 5.512 0 0 1-5.511-5.511v-28.086a5.511 5.511 0 0 1 11.022 0v28.086a5.51 5.51 0 0 1-5.511 5.511zM92.5 189.932a5.511 5.511 0 0 1-5.511-5.511v-15.438a5.511 5.511 0 0 1 11.022 0v15.438a5.51 5.51 0 0 1-5.511 5.511zM116.902 189.932a5.511 5.511 0 0 1-5.511-5.511v-29.87a5.511 5.511 0 0 1 11.022 0v29.87a5.51 5.51 0 0 1-5.511 5.511z" style="" fill="#6db750" data-original="#6db750"></path><path d="M145.963 206.989H46.201a5.511 5.511 0 0 1-5.511-5.511v-67.853a5.511 5.511 0 0 1 11.022 0v62.342h94.252a5.512 5.512 0 0 1-.001 11.022z" style="" fill="#6db750" data-original="#6db750"></path><path d="M404.402 296.637c4.072-16.979 6.098-33.958 6.098-50.959 0-19.655-4.504-42.48-16.84-63.322 10.41-21.751 30.755-70.645 12.951-88.45-17.933-17.932-75.06 14.687-100.221 30.501-12.453-2.071-28.517-2.921-46.912-2.839-18.398-.083-34.463.768-46.918 2.839-25.169-15.826-82.293-48.423-100.215-30.501-17.799 17.799 2.523 66.663 12.96 88.435-12.343 20.846-16.849 43.677-16.849 63.337 0 17 2.025 33.98 6.098 50.959 7.875 32.823 33.658 58.088 66.6 65.141h-8.889c-47.634 34.129-76.312 98.115-43.607 105.61 32.705 7.495 61.202-26.573 61.202-26.573h139.387s28.497 34.068 61.202 26.573c32.705-7.495 4.027-71.481-43.607-105.61h-9.039c32.941-7.053 58.724-32.319 66.599-65.141z" style="" fill="#b0b8c5" data-original="#b0b8c5" class=""></path><path d="M277.738 133.703c0 28.14-8.188 50.936-18.25 50.936-10.084 0-18.271-22.797-18.271-50.936 0-3.857.151-7.606.452-11.204a384.971 384.971 0 0 1 35.617.021c.302 3.598.452 7.347.452 11.183zM238.523 124.459c0 28.119-8.167 50.936-18.25 50.936-9.696 0-17.668-21.223-18.228-47.942a127.075 127.075 0 0 1 19.392-3.469 378.067 378.067 0 0 1 17.065-1.314c.021.604.021 1.185.021 1.789zM316.911 127.217c-.517 26.826-8.49 48.178-18.229 48.178-10.084 0-18.25-22.818-18.25-50.936 0-.604 0-1.185.022-1.789 6.529.344 13.079.883 19.608 1.573a123.5 123.5 0 0 1 16.849 2.974z" style="" fill="#90a1b4" data-original="#90a1b4"></path><path d="M133.338 137.195s-2.909 6.593-3.383 13.984c-.452 6.83 3.663 12.044 9.049 14.22a124.237 124.237 0 0 1 41.047-30.682 14.298 14.298 0 0 0-4.719-10.084c-12.109-11.01-28.852-22.883-40.702-18.056-20.641 8.424-1.292 30.618-1.292 30.618z" style="" fill="#ffffff" data-original="#ffffff"></path><path d="M355.937 361.753c26.59-11.424 46.902-34.982 53.823-63.831 4.147-17.292 6.25-34.869 6.25-52.245 0-19.938-4.584-58.018-35.282-89.028a5.511 5.511 0 0 0-7.833 7.754c27.924 28.208 32.094 63.029 32.094 81.275 0 16.511-2.001 33.224-5.946 49.673-7.417 30.914-32.257 54.95-63.283 61.236-25.314 5.117-50.979 7.712-76.283 7.712-25.303 0-50.969-2.595-76.281-7.712-31.027-6.285-55.867-30.321-63.285-61.236-3.945-16.449-5.946-33.162-5.946-49.673 0-18.245 4.169-53.066 32.093-81.275a5.51 5.51 0 1 0-7.833-7.754 118.462 118.462 0 0 0-12.095 14.323c-16.061-36.227-19.817-63.257-9.899-73.175 9.533-9.534 40.451-.218 81.951 24.309-7.138 2.138-14.002 4.652-20.403 7.531a5.51 5.51 0 0 0-2.765 7.286 5.506 5.506 0 0 0 7.287 2.765c6.616-2.975 13.762-5.564 21.235-7.691 11.897-3.377 30.71-5.037 55.964-4.919 25.202-.114 44.02 1.542 55.91 4.918 7.483 2.13 14.629 4.717 21.239 7.692a5.512 5.512 0 0 0 4.523-10.051c-7.096-3.193-14.749-5.966-22.748-8.243-12.888-3.659-32.738-5.446-58.924-5.338-18.501-.084-33.813.79-45.765 2.594-38.06-23.73-86.523-47.417-105.295-28.645-19.07 19.069-2.164 64.742 10.638 92.066-13.626 24.328-16.133 48.902-16.133 63.607 0 17.376 2.103 34.953 6.25 52.245 6.93 28.884 27.283 52.464 53.921 63.872-33.711 26.747-58.206 68.735-53.349 92.918 1.901 9.464 8.172 15.874 17.659 18.048a47.87 47.87 0 0 0 10.714 1.2c11.833-.001 24.254-4.224 36.469-12.483 11.72-7.924 19.166-16.754 19.477-17.127a5.507 5.507 0 0 0-.688-7.755 5.516 5.516 0 0 0-7.761.679c-.068.081-6.923 8.174-17.425 15.224-13.485 9.054-26.379 12.256-38.324 9.519-5.301-1.214-8.261-4.225-9.315-9.475-1.897-9.446 2.791-24.639 12.542-40.641 10.665-17.504 25.709-33.714 42.359-45.644.059-.042.103-.097.16-.141 1.774.472 3.564.906 5.377 1.273 26.031 5.263 52.432 7.931 78.467 7.931 26.035 0 52.435-2.668 78.469-7.931a92.104 92.104 0 0 0 5.491-1.303c.069.054.123.12.194.171 16.65 11.93 31.694 28.14 42.359 45.644 9.75 16.002 14.439 31.195 12.542 40.641-1.054 5.25-4.015 8.26-9.316 9.475-11.947 2.739-24.839-.465-38.324-9.519-10.501-7.05-17.356-15.143-17.42-15.218a5.508 5.508 0 0 0-7.763-.692 5.51 5.51 0 0 0-.691 7.762c.311.373 7.757 9.203 19.477 17.127 12.217 8.259 24.635 12.483 36.469 12.483 3.633 0 7.213-.399 10.713-1.2 9.487-2.174 15.758-8.584 17.66-18.048 4.86-24.196-19.663-66.215-53.401-92.96z" style="" fill="#67818d" data-original="#67818d"></path><path d="M366.35 310.71h-26.769a5.511 5.511 0 0 1 0-11.022h26.769a5.512 5.512 0 0 1 0 11.022zM361.482 335.858a5.49 5.49 0 0 1-1.913-.345l-21.902-8.111a5.51 5.51 0 1 1 3.828-10.335l21.902 8.112a5.51 5.51 0 0 1-1.915 10.679zM179.374 310.71h-26.769a5.511 5.511 0 0 1 0-11.022h26.769a5.511 5.511 0 0 1 0 11.022zM157.473 335.858a5.513 5.513 0 0 1-5.168-3.599 5.51 5.51 0 0 1 3.254-7.081l21.902-8.112a5.511 5.511 0 0 1 3.828 10.335l-21.902 8.111a5.479 5.479 0 0 1-1.914.346z" style="" fill="#90a1b4" data-original="#90a1b4"></path><path d="M239.597 261.936c.084 15.036-6.708 28.525-17.433 37.441-8.32 6.937-18.977 11.117-30.651 11.182a48.076 48.076 0 0 1-12.749-1.634c-20.561-5.474-35.749-24.144-35.874-46.45-.102-18.352 10.038-34.368 25.076-42.645h.024c6.822-3.779 14.649-5.931 22.984-5.977 6.133-.034 11.988 1.07 17.399 3.147 18.154 6.86 31.11 24.382 31.224 44.936zM376.582 261.173c.078 14.065-5.866 26.768-15.406 35.653-8.551 8.004-20.033 12.899-32.677 12.969a49.622 49.622 0 0 1-11.634-1.332c-21.127-5.092-36.862-24.043-36.988-46.752-.107-19.204 11.024-35.889 27.202-43.747 6.305-3.09 13.4-4.834 20.882-4.876 6.488-.036 12.699 1.208 18.348 3.521 17.656 7.101 30.161 24.366 30.273 44.564z" style="" fill="#92f5f7" data-original="#92f5f7" class=""></path><path d="M361.176 296.826c-8.551 8.004-20.033 12.899-32.677 12.969a49.622 49.622 0 0 1-11.634-1.332c14.228-21.96 9.158-35.192-9.036-40.798-17.791-5.489-14.222-32.268-.75-49.7 6.305-3.09 13.4-4.834 20.882-4.876 6.488-.036 12.699 1.208 18.348 3.521-14.206 17.389-18.337 45.236-.143 50.842 14.777 4.559 20.893 14.163 15.01 29.374zM222.164 299.377c-8.32 6.937-18.977 11.117-30.651 11.182a48.076 48.076 0 0 1-12.749-1.634c14.016-21.769 8.899-34.907-9.2-40.489-17.435-5.373-14.358-31.154-1.597-48.606h.024c6.822-3.779 14.649-5.931 22.984-5.977 6.133-.034 11.988 1.07 17.399 3.147-14.49 17.367-18.809 45.571-.472 51.223 15.347 4.744 21.347 14.893 14.262 31.154z" style="" fill="#dcfbfb" data-original="#dcfbfb" class=""></path><path d="M239.618 267.436a5.506 5.506 0 0 1-4.601-2.465 5.5 5.5 0 0 1 1.524-7.618c.954-.637 23.623-15.428 46.394-.225a5.51 5.51 0 1 1-6.12 9.166c-16.57-11.063-33.46-.231-34.171.236a5.492 5.492 0 0 1-3.026.906z" style="" fill="#605c5d" data-original="#605c5d" class=""></path><path d="M191.241 316.07c-14.272 0-27.709-5.521-37.866-15.566-10.23-10.117-15.909-23.613-15.989-38-.08-14.388 5.448-27.944 15.564-38.175 10.117-10.23 23.612-15.908 37.999-15.988l.305-.001c29.563 0 53.695 23.966 53.86 53.565.165 29.701-23.863 53.999-53.564 54.164l-.309.001zm.012-96.708-.242.001c-11.444.064-22.178 4.58-30.224 12.717-8.047 8.137-12.443 18.92-12.38 30.364.064 11.443 4.58 22.177 12.717 30.224 8.079 7.989 18.767 12.381 30.119 12.381l.245-.001c23.624-.131 42.736-19.458 42.604-43.082-.131-23.54-19.327-42.604-42.839-42.604zM328.221 315.307c-14.272 0-27.709-5.52-37.866-15.565-10.23-10.117-15.909-23.612-15.989-38-.08-14.387 5.448-27.944 15.564-38.175 10.117-10.23 23.612-15.908 38-15.988l.309-.001c14.273 0 27.71 5.52 37.867 15.566 10.229 10.115 15.907 23.613 15.988 38 .08 14.387-5.447 27.944-15.564 38.175-10.117 10.23-23.612 15.908-38 15.988h-.309zm.015-96.708-.245.001c-11.444.064-22.178 4.58-30.224 12.717-8.047 8.137-12.443 18.92-12.38 30.364.064 11.443 4.58 22.177 12.717 30.224 8.079 7.989 18.767 12.38 30.119 12.381l.245-.001c11.444-.064 22.178-4.58 30.225-12.717s12.443-18.92 12.379-30.364c-.064-11.443-4.58-22.178-12.717-30.224-8.079-7.99-18.767-12.381-30.119-12.381z" style="" fill="#605c5d" data-original="#605c5d" class=""></path><path d="M376.578 266.684a5.51 5.51 0 0 1-4.417-8.8l26.199-35.203a17.761 17.761 0 0 1 12.914-7.111 17.761 17.761 0 0 1 13.838 5.084l3.227 3.193a5.51 5.51 0 1 1-7.75 7.835l-3.227-3.192c-1.41-1.394-3.275-2.087-5.255-1.931a6.663 6.663 0 0 0-4.905 2.701l-26.199 35.202a5.5 5.5 0 0 1-4.425 2.222zM142.896 267.985a5.501 5.501 0 0 1-4.388-2.171l-26.589-34.908a6.656 6.656 0 0 0-4.935-2.647 6.65 6.65 0 0 0-5.234 1.989l-3.191 3.227a5.512 5.512 0 0 1-7.836-7.75l3.191-3.227a17.766 17.766 0 0 1 26.773 1.729l26.589 34.907a5.51 5.51 0 0 1-4.38 8.851z" style="" fill="#605c5d" data-original="#605c5d" class=""></path><path d="M186.448 280.041c-.081-9.8 6.741-17.801 15.237-17.871 8.495-.07 15.448 7.818 15.528 17.618.08 9.8-6.741 17.801-15.237 17.87-8.495.07-15.447-7.817-15.528-17.617z" style="" fill="#00d3d6" data-original="#00d3d6"></path><ellipse cx="318.063" cy="278.96" rx="15.383" ry="17.745" style="" transform="matrix(1 -.0082 .0082 1 -2.279 2.62)" fill="#00d3d6" data-original="#00d3d6"></ellipse><path d="M264.988 289.136v-3.907h2.007a5.512 5.512 0 0 0 0-11.022H251.96a5.511 5.511 0 0 0 0 11.022h2.007v3.907c-7.942 2.377-13.751 9.743-13.751 18.449a5.511 5.511 0 0 0 11.022 0c0-4.544 3.697-8.241 8.24-8.241 4.544 0 8.241 3.697 8.241 8.241a5.511 5.511 0 0 0 11.022 0c-.001-8.706-5.81-16.072-13.753-18.449z" style="" fill="#67818d" data-original="#67818d"></path><path d="M435.604 170.709h-95.605c-22.824 0-41.327-18.503-41.327-41.327V81.558c0-22.824 18.503-41.327 41.327-41.327h95.605c22.824 0 41.327 18.503 41.327 41.327v47.823c0 22.825-18.503 41.328-41.327 41.328z" style="" fill="#ffffff" data-original="#ffffff"></path><path d="M138.532 438.591a5.468 5.468 0 0 1-2.51-.61 5.5 5.5 0 0 1-2.394-7.388c.407-.8 10.24-19.648 33.422-24.688 2.97-.652 5.909 1.24 6.556 4.213a5.51 5.51 0 0 1-4.214 6.556c-17.939 3.901-25.634 18.329-25.953 18.941a5.534 5.534 0 0 1-4.907 2.976zM380.571 438.605a5.51 5.51 0 0 1-4.905-2.991c-.332-.637-8.029-15.042-25.952-18.939a5.51 5.51 0 0 1-4.214-6.556 5.508 5.508 0 0 1 6.556-4.213c23.183 5.04 33.016 23.888 33.423 24.688a5.51 5.51 0 0 1-4.908 8.011z" style="" fill="#67818d" data-original="#67818d"></path><path d="M346.728 471.769h-174.35a14.88 14.88 0 0 1-14.631-12.165l-15.529-83.643c-2.442-13.152 7.653-25.294 21.03-25.294h192.609c13.377 0 23.472 12.141 21.03 25.294l-15.528 83.643a14.88 14.88 0 0 1-14.631 12.165z" style="" fill="#777677" data-original="#777677"></path><path d="M346.728 477.28H172.377c-9.824 0-18.255-7.011-20.049-16.669L136.8 376.967a26.823 26.823 0 0 1 5.764-22.108 26.827 26.827 0 0 1 20.685-9.703h192.609a26.823 26.823 0 0 1 20.685 9.703 26.823 26.823 0 0 1 5.764 22.108l-15.528 83.644c-1.796 9.658-10.227 16.669-20.051 16.669zm-183.48-121.102a15.834 15.834 0 0 0-12.21 5.727 15.835 15.835 0 0 0-3.402 13.05l15.528 83.644a9.373 9.373 0 0 0 9.213 7.66h174.351a9.372 9.372 0 0 0 9.213-7.66l15.528-83.644a15.835 15.835 0 0 0-3.402-13.05 15.834 15.834 0 0 0-12.21-5.727H163.248z" style="" fill="#605c5d" data-original="#605c5d" class=""></path><ellipse cx="259.553" cy="419.888" rx="19.266" ry="14.283" style="" fill="#ffffff" data-original="#ffffff"></ellipse><path d="M259.552 439.682c-13.893 0-24.776-8.695-24.776-19.794s10.883-19.794 24.776-19.794 24.777 8.695 24.777 19.794-10.883 19.794-24.777 19.794zm0-28.566c-7.327 0-13.755 4.099-13.755 8.772s6.428 8.773 13.755 8.773c7.328 0 13.755-4.1 13.755-8.773.001-4.674-6.427-8.772-13.755-8.772z" style="" fill="#605c5d" data-original="#605c5d" class=""></path><path d="M435.604 176.219h-95.606c-25.827 0-46.838-21.012-46.838-46.838V81.558c0-25.826 21.011-46.838 46.838-46.838h95.606c25.827 0 46.838 21.012 46.838 46.838v47.824c0 25.825-21.011 46.837-46.838 46.837zM339.999 45.742c-19.75 0-35.816 16.067-35.816 35.816v47.824c0 19.749 16.067 35.816 35.816 35.816h95.606c19.75 0 35.816-16.067 35.816-35.816V81.558c0-19.75-16.067-35.816-35.816-35.816h-95.606z" style="" fill="#e2e2e2" data-original="#e2e2e2"></path><ellipse cx="73.37" cy="361.778" rx="25.073" ry="24.191" style="" fill="#88d670" data-original="#88d670"></ellipse><path d="M73.37 376.936a5.512 5.512 0 0 1-5.024-3.246l-7.679-17.042a5.512 5.512 0 0 1 10.049-4.529l4.616 10.247 3.763-3.307a5.512 5.512 0 0 1 7.275 8.28l-9.363 8.227a5.51 5.51 0 0 1-3.637 1.37z" style="" fill="#ffffff" data-original="#ffffff"></path><path d="M73.37 391.479c-24.01 0-30.584-6.385-30.584-29.702s6.574-29.702 30.584-29.702c24.01 0 30.585 6.385 30.585 29.702-.001 23.318-6.575 29.702-30.585 29.702zm0-48.381c-9.374 0-14.296.868-16.459 2.902-2.176 2.046-3.104 6.764-3.104 15.778s.928 13.732 3.104 15.778c2.163 2.034 7.085 2.902 16.459 2.902 9.374 0 14.296-.868 16.459-2.902 2.176-2.046 3.104-6.764 3.104-15.778s-.928-13.732-3.104-15.778c-2.163-2.034-7.085-2.902-16.459-2.902z" style="" fill="#6db750" data-original="#6db750"></path><ellipse cx="471.708" cy="213.088" rx="25.073" ry="24.191" style="" fill="#fc80a5" data-original="#fc80a5"></ellipse><path d="m479.501 213.088 4.141-4.141a5.51 5.51 0 1 0-7.794-7.793l-4.141 4.141-4.141-4.141a5.51 5.51 0 1 0-7.793 7.793l4.141 4.141-4.141 4.141a5.51 5.51 0 0 0 3.897 9.407c1.41 0 2.821-.538 3.897-1.615l4.141-4.141 4.141 4.141c1.076 1.076 2.486 1.615 3.897 1.615s2.821-.538 3.897-1.615a5.51 5.51 0 0 0 0-7.792l-4.142-4.141z" style="" fill="#ffffff" data-original="#ffffff"></path><path d="M471.707 242.79c-24.01 0-30.584-6.384-30.584-29.701s6.574-29.702 30.584-29.702c24.01 0 30.584 6.384 30.584 29.702.001 23.316-6.574 29.701-30.584 29.701zm0-48.382c-9.374 0-14.296.868-16.459 2.902-2.176 2.046-3.104 6.764-3.104 15.778s.928 13.732 3.104 15.778c2.163 2.034 7.085 2.902 16.459 2.902 9.374 0 14.296-.868 16.459-2.902 2.176-2.045 3.104-6.764 3.104-15.778s-.928-13.733-3.104-15.778c-2.163-2.034-7.085-2.902-16.459-2.902z" style="" fill="#fd518d" data-original="#fd518d"></path><ellipse cx="226.809" cy="71.056" rx="25.073" ry="24.191" style="" fill="#fc80a5" data-original="#fc80a5"></ellipse><path d="m234.601 71.056 4.141-4.141a5.51 5.51 0 1 0-7.794-7.793l-4.141 4.141-4.141-4.141a5.51 5.51 0 1 0-7.794 7.793l4.141 4.141-4.141 4.141a5.51 5.51 0 0 0 3.897 9.407c1.41 0 2.821-.538 3.897-1.615l4.141-4.141 4.141 4.141a5.494 5.494 0 0 0 3.897 1.615 5.51 5.51 0 0 0 3.897-9.407l-4.141-4.141z" style="" fill="#ffffff" data-original="#ffffff"></path><path d="M226.809 100.757c-24.01 0-30.584-6.384-30.584-29.701 0-23.316 6.574-29.701 30.584-29.701s30.584 6.384 30.584 29.701-6.575 29.701-30.584 29.701zm0-48.38c-9.374 0-14.296.868-16.459 2.901-2.176 2.046-3.104 6.765-3.104 15.778 0 9.014.928 13.733 3.104 15.778 2.163 2.034 7.085 2.902 16.459 2.902 9.374 0 14.296-.868 16.459-2.902 2.176-2.046 3.104-6.764 3.104-15.778 0-9.013-.928-13.732-3.104-15.777-2.163-2.034-7.086-2.902-16.459-2.902zM434.307 72.869h-25.021a5.512 5.512 0 0 0 0 11.022h12.048l-26.423 30.057-26.034-17.275a5.51 5.51 0 0 0-7.38 1.187l-24.535 31.215a5.51 5.51 0 1 0 8.666 6.81l21.393-27.217 25.806 17.123a5.516 5.516 0 0 0 7.186-.953l28.783-32.741V103.4a5.511 5.511 0 0 0 11.022 0V78.38a5.511 5.511 0 0 0-5.511-5.511z" style="" fill="#fd518d" data-original="#fd518d"></path></g></svg>